PathFileType  4	(X/Y/Z) C:\Users\antoi\Documents\MyRepositories\mobilecap\ResultsAnalysis
DataRate	CameraRate	NumFrames	NumMarkers	Units	OrigDataRate	OrigDataStartFrame	OrigNumFrames
100.0	100.0	6	51	mm	100.0	18	138
Frame#	Time	r_knee			r_shank_antsup			r_ankle			r_calc			r_5meta			r_toe			L_knee			L_shank_antsup			L_ankle			L_calc			L_5meta			L_toe			r_sh2			r_sh3			r_sh4			L_sh2			L_sh3			r_thigh1			r_thigh2			r_thigh3			r_thigh4			r_thigh5			L_thigh1			L_thigh2			L_thigh3			L_thigh4			r.ASIS			r.PSIS			L.ASIS			L.PSIS			C7			R_Shoulder			L_Shoulder			R_Sternum			L_Sternum			R_humerus			R_elbow_med			R_elbow_lat			R_forearm			R_wrist_radius			R_wrist_ulna			L_humerus			L_elbow_med			L_elbow_lat			L_forearm			L_wrist_radius			L_wrist_ulna			R_HJC			L_HJC			R_HJC_reg			L_HJC_reg			
		X1	Y1	Z1	X2	Y2	Z2	X3	Y3	Z3	X4	Y4	Z4	X5	Y5	Z5	X6	Y6	Z6	X7	Y7	Z7	X8	Y8	Z8	X9	Y9	Z9	X10	Y10	Z10	X11	Y11	Z11	X12	Y12	Z12	X13	Y13	Z13	X14	Y14	Z14	X15	Y15	Z15	X16	Y16	Z16	X17	Y17	Z17	X18	Y18	Z18	X19	Y19	Z19	X20	Y20	Z20	X21	Y21	Z21	X22	Y22	Z22	X23	Y23	Z23	X24	Y24	Z24	X25	Y25	Z25	X26	Y26	Z26	X27	Y27	Z27	X28	Y28	Z28	X29	Y29	Z29	X30	Y30	Z30	X31	Y31	Z31	X32	Y32	Z32	X33	Y33	Z33	X34	Y34	Z34	X35	Y35	Z35	X36	Y36	Z36	X37	Y37	Z37	X38	Y38	Z38	X39	Y39	Z39	X40	Y40	Z40	X41	Y41	Z41	X42	Y42	Z42	X43	Y43	Z43	X44	Y44	Z44	X45	Y45	Z45	X46	Y46	Z46	X47	Y47	Z47	X48	Y48	Z48	X49	Y49	Z49	X50	Y50	Z50	X51	Y51	Z51	

18	0.17000000	118.66923	468.54334	-137.81151	168.72809	359.89890	-166.01935	114.26465	85.63588	-201.26379	68.09696	54.74549	-258.63100	227.13966	39.71361	-174.32157	266.11275	58.86876	-215.56226	-29.72679	435.39313	-418.87360	-71.51282	329.23838	-379.60808	-348.51872	223.01596	-396.56761	-398.82685	248.63887	-348.85763	-344.18945	86.83016	-402.61530	-309.28095	67.29603	-348.56227	167.08062	249.13033	-188.80534	116.61156	346.27366	-111.00902	98.23703	238.44115	-140.35574	-91.91667	384.09739	-443.67184	-192.77923	318.56414	-452.97646	135.42711	783.09775	-128.79805	168.92742	676.83051	-135.46987	131.54400	638.60721	-89.81028	43.47705	750.70819	-77.16970	74.47175	640.59742	-81.80933	60.60075	721.52965	-433.27337	67.79280	584.32194	-430.00813	-47.53164	720.23270	-457.80457	-42.56424	580.20298	-443.58443	115.19982	933.09228	-160.45315	-75.45637	963.98325	-217.98846	103.08123	904.99322	-401.25845	-81.85880	956.50137	-334.78631	-78.69818	1408.32216	-262.10688	-31.30025	1372.87754	-109.00123	-7.72974	1395.13182	-416.35171	49.80308	1363.85794	-237.62662	52.72157	1363.69367	-281.33738	-28.88239	1241.75630	-46.67953	-106.86399	1055.15715	-123.88675	-105.75531	1061.54361	-47.72932	-89.25743	938.90162	-17.56429	-87.99238	834.93008	-10.56970	-127.69160	839.86398	-5.03150	38.53873	1254.43929	-482.76170	2.62365	1053.27770	-438.04904	18.85870	1066.44855	-509.34911	96.94354	1002.32867	-528.44984	178.50813	901.40019	-516.74331	155.78331	884.71986	-533.79285	24.34738	857.51358	-171.50584	18.53816	834.20785	-359.35144	43.73249	852.82977	-185.31016	34.98596	842.60215	-344.95493	
19	0.18000000	123.81066	468.61420	-136.67540	172.62460	359.22783	-165.19678	114.63518	85.72508	-201.23921	68.22127	54.75927	-258.55234	227.23723	39.52311	-174.22525	266.25016	58.62097	-215.46587	-2.63635	435.08917	-418.48313	-46.11200	329.97750	-378.62864	-325.17500	231.22429	-397.04508	-374.41313	259.19087	-349.68818	-326.53908	94.53800	-402.47537	-291.86869	73.65188	-348.73260	169.50443	248.53830	-188.25152	120.35819	346.15869	-110.23408	100.56971	238.61771	-139.84005	-64.42096	384.92070	-443.22805	-166.95701	321.95035	-452.88455	146.26676	783.05181	-127.92403	177.48456	675.83685	-134.42431	139.84605	638.66640	-88.90950	53.75621	752.23221	-76.22778	82.93379	641.78407	-81.04056	76.52285	723.39017	-432.43954	88.96786	586.59519	-430.33544	-31.80073	718.20739	-456.46970	-21.32171	578.31991	-442.85080	127.54165	934.16814	-159.81531	-63.17221	965.99628	-216.44770	114.25032	906.83992	-400.62790	-70.34325	957.95784	-333.29492	-66.27151	1410.21611	-260.86372	-17.51014	1375.34368	-108.11875	3.64606	1397.11791	-415.43210	62.34416	1365.92133	-237.25431	64.82056	1365.68510	-280.99824	-13.60896	1244.33350	-45.76584	-91.00231	1057.16756	-122.12585	-88.84325	1063.16956	-46.05199	-69.04199	940.57304	-16.48577	-65.51663	836.82895	-9.31347	-104.63642	840.44282	-3.79548	48.80263	1256.05156	-481.85193	11.14318	1055.49882	-435.70666	27.00675	1068.13520	-507.32089	103.35732	1002.29486	-526.93711	182.22357	899.15233	-515.53685	158.97421	883.09412	-532.59118	36.54533	858.92794	-170.60665	29.82149	835.93000	-358.45563	55.65755	855.21037	-183.95662	45.86974	844.23509	-343.47256	
20	0.19000000	128.63465	468.63638	-135.47995	176.09390	358.55190	-164.24289	114.99778	85.78528	-201.22851	68.34132	54.78033	-258.47532	227.31557	39.30650	-174.09232	266.33645	58.39379	-215.31380	24.20724	435.68138	-418.31824	-20.48894	331.26054	-377.85878	-300.89031	238.33336	-397.33026	-349.62093	267.61324	-350.33622	-305.50336	101.49944	-402.36257	-270.79439	79.99862	-348.89355	171.63840	247.96847	-187.57963	123.65284	345.98648	-109.37658	102.60161	238.73886	-139.26836	-36.87350	386.35728	-442.90512	-140.72723	325.49568	-452.94957	156.73081	782.94951	-127.09338	185.78227	674.85808	-133.43450	147.87582	638.74413	-88.03960	63.72067	753.63676	-75.28530	91.16450	642.90650	-80.27000	92.14667	725.58014	-431.90326	109.72796	589.47679	-430.87663	-16.30722	716.66411	-455.26988	-0.34536	577.11672	-442.20992	139.64248	934.99264	-159.30482	-51.13915	967.80755	-214.91054	125.23118	908.53505	-400.24044	-59.08335	959.16113	-331.78387	-53.88037	1411.97794	-259.58208	-3.59502	1377.57562	-107.23015	14.83633	1398.83443	-414.62855	74.85967	1367.76699	-236.96417	76.89056	1367.49147	-280.73858	1.88082	1246.61416	-44.91109	-75.30572	1058.96166	-120.16262	-71.86664	1064.58253	-44.23036	-48.59426	942.10106	-15.35916	-42.83881	838.75907	-7.95663	-81.23941	840.94692	-2.56259	58.82962	1257.33550	-481.01191	19.46785	1057.36024	-433.61187	35.04318	1069.53103	-505.48844	109.61138	1002.01038	-525.60731	185.84762	896.76713	-514.54351	162.06509	881.31353	-531.61183	48.56818	860.08502	-169.83485	40.86410	837.47198	-357.69215	67.34285	857.43175	-182.72356	56.50412	845.63381	-342.16821	
21	0.20000000	133.22907	468.62391	-134.32907	179.22249	357.89557	-163.25641	115.35532	85.81948	-201.23909	68.45683	54.81708	-258.41346	227.38031	39.07269	-173.94699	266.37446	58.17003	-215.14223	50.72747	437.16436	-418.33388	5.31465	333.04510	-377.34085	-275.76791	244.23495	-397.36884	-324.52884	273.85652	-350.67101	-281.27901	107.43850	-402.33279	-246.16074	85.94553	-349.14897	173.55223	247.43191	-186.88032	126.60121	345.79435	-108.50686	104.41749	238.83223	-138.69475	-9.44454	388.44409	-442.67008	-114.25573	329.17338	-453.07197	166.86089	782.77321	-126.31200	193.90522	673.93235	-132.54332	155.66191	638.80207	-87.21228	73.40583	754.90788	-74.33751	99.15162	643.91135	-79.49266	107.48529	728.16535	-431.60958	130.08215	592.98504	-431.52932	-0.99158	715.64095	-454.15515	20.40014	576.61940	-441.62139	151.48666	935.65024	-158.85562	-39.36879	969.42734	-213.44370	136.06538	910.12179	-399.98903	-48.03437	960.15034	-330.31610	-41.50864	1413.62891	-258.28057	10.39720	1379.56090	-106.34328	25.87327	1400.28349	-413.95476	87.35639	1369.39476	-236.74940	88.96655	1369.12518	-280.54565	17.55826	1248.57447	-44.14004	-59.75958	1060.47975	-117.99233	-54.76266	1065.72025	-42.26996	-27.91999	943.46854	-14.18299	-19.87436	840.66691	-6.60011	-57.51421	841.36840	-1.32531	68.59677	1258.27551	-480.25079	27.59498	1058.84515	-431.75489	42.97264	1070.61712	-503.83466	115.73472	1001.48477	-524.44101	189.41086	894.24242	-513.75936	165.08574	879.38280	-530.84183	60.38922	861.04760	-169.16223	51.73879	838.86626	-357.03225	78.79277	859.51229	-181.58360	66.97037	846.85597	-340.99694	
22	0.21000000	137.61491	468.57721	-133.29482	182.08359	357.27191	-162.31924	115.70173	85.83322	-201.27497	68.57284	54.87165	-258.38135	227.43321	38.83734	-173.81018	266.37552	57.94191	-214.98000	76.90952	439.47048	-418.45944	31.34640	335.29669	-377.07864	-249.87668	248.84207	-397.14416	-299.08582	277.97160	-350.58275	-254.29979	112.16638	-402.44815	-218.34750	91.13099	-349.61972	175.31084	246.93311	-186.23172	129.28653	345.60391	-107.69235	106.07905	238.91540	-138.17787	17.75304	391.16606	-442.47065	-87.64077	332.89751	-453.14840	176.68729	782.47070	-125.57610	201.85021	673.02112	-131.76428	163.18366	638.77811	-86.42436	82.80861	756.01718	-73.37902	106.85424	644.75339	-78.70974	122.57965	731.17591	-431.49111	150.08560	597.09504	-432.20310	14.22778	715.10852	-453.11251	40.98128	576.79685	-441.08039	163.05367	936.20959	-158.38945	-27.86114	970.86603	-212.09250	146.79221	911.66294	-399.75474	-37.15453	960.99475	-328.93693	-29.14507	1415.19105	-256.99014	24.40737	1381.30645	-105.47336	36.79873	1401.48135	-413.41263	99.83464	1370.81802	-236.60699	101.06193	1370.59894	-280.41691	33.37534	1250.22931	-43.47752	-44.32903	1061.68646	-115.62126	-37.45398	1066.54832	-40.18714	-7.02207	944.68613	-12.96276	3.49926	842.49281	-5.36143	-33.45675	841.71521	-0.06955	78.09757	1258.88284	-479.57739	35.52885	1059.97169	-430.10274	50.77386	1071.41162	-502.32309	121.74073	1000.75384	-523.40888	192.90285	891.59547	-513.16119	168.04196	877.33977	-530.25057	71.97627	861.86907	-168.55799	62.50978	840.16683	-356.44886	90.01687	861.45065	-180.50707	77.33530	847.98122	-339.91174	
23	0.22000000	141.76592	468.50126	-132.40493	184.73318	356.68758	-161.48037	116.02549	85.83956	-201.34170	68.69732	54.93668	-258.39337	227.47315	38.61849	-173.69557	266.35552	57.70956	-214.84435	102.78000	442.48851	-418.61508	57.69005	337.98382	-377.03716	-223.26923	252.08941	-396.67150	-273.18012	280.05921	-350.00771	-225.10706	115.58920	-402.76524	-187.91983	95.27438	-350.40243	176.96349	246.47412	-185.68257	131.76028	345.42237	-106.97949	107.61906	238.99644	-137.76305	44.65858	394.44617	-442.25308	-60.92439	336.52457	-453.10209	186.22040	781.98813	-124.87559	209.57825	672.05937	-131.09042	170.39722	638.61890	-85.68169	91.90755	756.93636	-72.41299	114.23716	645.41697	-77.94195	137.48719	734.59312	-431.47528	169.81013	601.74538	-432.82203	29.42775	714.98930	-452.15628	61.46273	577.58286	-440.61106	174.33511	936.71797	-157.83109	-16.60035	972.13684	-210.87753	157.45388	913.22927	-399.43095	-26.40273	961.77941	-327.66876	-16.78985	1416.68117	-255.74636	38.37136	1382.83279	-104.63935	47.65558	1402.45497	-412.99023	112.28317	1372.05832	-236.53495	113.16838	1371.92225	-280.35506	49.26087	1251.62507	-42.94076	-28.95393	1062.56778	-113.06542	-19.86880	1067.06890	-38.00780	14.09705	945.78812	-11.71284	27.37294	844.19974	-4.33030	-9.06037	842.01895	1.21416	87.34666	1259.19050	-478.99618	43.28013	1060.78679	-428.60502	58.40511	1071.96373	-500.90336	127.62256	999.86717	-522.47910	196.27736	888.86215	-512.71585	170.92017	875.24058	-529.80025	83.30851	862.58976	-167.99455	73.23323	841.43929	-355.92070	101.03606	863.23334	-179.46699	87.65436	849.09474	-338.87367	
